<?xml version="1.0" encoding="utf-8"?>
<!-- Generator: Adobe Illustrator 18.0.0, SVG Export Plug-In . SVG Version: 6.00 Build 0)  -->
<!DOCTYPE svg PUBLIC "-//W3C//DTD SVG 1.1//EN" "http://www.w3.org/Graphics/SVG/1.1/DTD/svg11.dtd">
<svg version="1.1" id="Layer_1" xmlns="http://www.w3.org/2000/svg" xmlns:xlink="http://www.w3.org/1999/xlink" x="0px" y="0px"
	 viewBox="0 0 180 180" enable-background="new 0 0 180 180" xml:space="preserve">
<g>
	<g>
		<path fill="#593E9B" d="M144.9,168.7H61.5c-1.7,0-3.2-1.2-3.5-2.9c-0.3-1.7,0.7-3.3,2.3-3.9l16.2-5.6l-8.3-21.8
			c-1.1-2.7-1.9-4.9-2.5-6.5c-4.1-12,2.6-15.8,5.7-16.8c3.2-1.1,6.5-0.7,9.3,1.2c1.1,0.7,2.7,2.2,8.7,11.2l15.3,23l32.6-11.3
			l-43-44.6c-0.7-0.7-1-1.6-1-2.5l1.8-61l-22,7.6l1.6,31.1c0.3,6.6,0.5,10.5,0.5,12c0.1,10-4.7,13.8-8.8,15.2
			c-2.7,0.9-5.5,0.9-8.2,0c-2.8-0.9-5.1-2.7-6.8-5.4c-0.6-1-1.8-3.4-6.1-13.9L34.9,47.9l-18.6,6.4c-1.1,0.4-2.3,0.2-3.2-0.5
			c-0.9-0.7-1.5-1.7-1.5-2.9V35.4c0-13.1,10.6-23.7,23.7-23.7h83.3c1.7,0,3.2,1.2,3.5,2.9c0.3,1.7-0.7,3.3-2.3,3.9l-5.9,2l28.5,66.7
			l21.6-7.5c1.1-0.4,2.3-0.2,3.2,0.5s1.5,1.7,1.5,2.9v20.4c0,1.9-1.5,3.5-3.4,3.5c-0.9,0-1.9,0.2-2.8,0.5c-2.5,0.9-4.3,2.4-5.6,4.6
			c-1.4,2.6-1.6,5-0.7,7.7c0.8,2.4,2.3,4.2,4.5,5.4c1.5,0.8,2.9,1.2,4.5,1.2c1.9,0,3.5,1.6,3.5,3.5V145
			C168.6,158.1,158,168.7,144.9,168.7z M82.3,161.7h62.7c9.2,0,16.7-7.5,16.7-16.7v-12.1c-1.5-0.3-2.9-0.9-4.3-1.7
			c-3.7-2-6.3-5.1-7.8-9.2c-1.6-4.5-1.2-9,1.2-13.3c2.1-3.8,5.2-6.4,9.4-7.9c0.5-0.2,1-0.3,1.5-0.4V88l-20,6.9
			c-1.7,0.6-3.6-0.2-4.4-1.9L106,19.9c-0.2-0.4-0.2-0.7-0.3-1.1h-5.9c0.4,0.1,0.7,0.3,1.1,0.5c0.9,0.7,1.5,1.8,1.4,2.9l-1.9,64.6
			l45.7,47.5c0.8,0.9,1.2,2.1,0.9,3.2c-0.3,1.2-1.1,2.1-2.3,2.5l-40.3,14c-1.5,0.5-3.2,0-4.1-1.4l-16.8-25.2c-5-7.5-6.5-9-6.8-9.3
			c-1-0.7-1.9-0.8-3.1-0.4c-1.3,0.4-3.7,1.3-1.4,7.9c0.5,1.6,1.3,3.7,2.4,6.3l9.6,25.2c0.3,0.9,0.3,1.9-0.1,2.7
			C83.9,160.8,83.2,161.4,82.3,161.7z M36.8,40.1c1.4,0,2.7,0.8,3.2,2.2L51.8,71c4.2,10.1,5.3,12.4,5.6,12.8
			c0.8,1.2,1.8,2.1,3.1,2.5c1.4,0.5,2.5,0.5,3.7,0.1c1.1-0.4,4.2-1.4,4.1-8.6c0-1-0.1-3.7-0.4-11.6l-1.8-33.7
			c-0.1-1.6,0.9-3,2.3-3.5l29.3-10.1c0,0,0.1,0,0.1,0H35.4c-9.2,0-16.7,7.5-16.7,16.7v10.7l17.1-5.9C36.1,40.1,36.5,40.1,36.8,40.1z
			"/>
	</g>
	<g>
		<path fill="#593E9B" d="M165.1,72.6c-1.5,0-2.9-1-3.4-2.5l-15.2-53.3c-0.3-1.2,0-2.5,0.9-3.4c0.9-0.9,2.2-1.3,3.4-0.9
			c10.5,2.7,17.8,12.1,17.8,23v33.7c0,1.7-1.3,3.2-3,3.5C165.5,72.6,165.3,72.6,165.1,72.6z M155.5,22.5l6.2,21.6v-8.6
			C161.6,30.3,159.3,25.6,155.5,22.5z"/>
	</g>
	<g>
		<path fill="#593E9B" d="M35.9,168.7h-0.5c-13.1,0-23.7-10.6-23.7-23.7V93.7c0-1.7,1.3-3.2,3-3.5c1.7-0.2,3.4,0.8,3.9,2.5
			l20.7,71.5c0.3,1.1,0.1,2.2-0.6,3.1S37,168.7,35.9,168.7z M18.6,118.4V145c0,7.7,5.3,14.2,12.4,16.2L18.6,118.4z"/>
	</g>
</g>
</svg>
