<?xml version="1.0" encoding="utf-8"?>
<!-- Generator: Adobe Illustrator 18.0.0, SVG Export Plug-In . SVG Version: 6.00 Build 0)  -->
<!DOCTYPE svg PUBLIC "-//W3C//DTD SVG 1.1//EN" "http://www.w3.org/Graphics/SVG/1.1/DTD/svg11.dtd">
<svg version="1.1" id="Layer_1" xmlns="http://www.w3.org/2000/svg" xmlns:xlink="http://www.w3.org/1999/xlink" x="0px" y="0px"
	 viewBox="0 0 300 300" enable-background="new 0 0 300 300" xml:space="preserve">
<g>
	<g>
		<path d="M257.4,300.8H94c-1.9,0-3.4-1.3-3.7-3.2c-0.3-1.8,0.7-3.6,2.5-4.2l34.8-12l-17.4-45.6c-2.1-5.2-3.7-9.5-4.8-12.7
			c-6.6-19.1,1.4-26.4,9.3-29.1c5.4-1.9,10.7-1.2,15.5,2c1.8,1.2,5.1,4.7,16.2,21l31.3,46.9l70.6-24.4l-87.4-90.8
			c-0.7-0.7-1.1-1.7-1.1-2.7l3.6-123.8l-49.4,17.1l3.3,63.1c0.6,12.7,0.9,20.3,0.9,23.2c0.2,14.4-4.9,23.4-15.2,27
			c-4.6,1.6-9.3,1.6-14.1-0.1c-4.8-1.6-8.8-4.7-11.8-9.4c-1-1.7-3.3-6.2-11.8-26.7L43.7,63.7L4.6,77.2c-1.2,0.4-2.4,0.2-3.4-0.5
			c-1-0.7-1.6-1.9-1.6-3.1V43C-0.4,19.1,19-0.4,42.9-0.4H206c1.9,0,3.4,1.3,3.7,3.2c0.3,1.8-0.7,3.6-2.5,4.2l-14.6,5l58.1,136.1
			l44.9-15.5c1.2-0.4,2.4-0.2,3.4,0.5c1,0.7,1.6,1.9,1.6,3.1v39.8c0,2.1-1.6,3.7-3.7,3.8c-2.1,0-4.3,0.4-6.4,1.2
			c-5.7,2-9.8,5.4-12.5,10.4c-3.1,5.8-3.6,11.5-1.6,17.5c1.9,5.5,5.3,9.5,10.3,12.2c3.3,1.8,6.7,2.8,10.2,2.8c2.1,0,3.8,1.7,3.8,3.8
			v29.7C300.7,281.3,281.3,300.8,257.4,300.8z M116.5,293.2h140.8c19.7,0,35.8-16,35.8-35.8v-26.2c-3.4-0.5-6.8-1.7-10-3.4
			c-6.6-3.6-11.3-9.1-13.8-16.4c-2.8-8-2.1-16,2.1-23.6c3.7-6.7,9.3-11.4,16.7-13.9c1.7-0.6,3.3-1,5-1.3v-31.1l-43.2,15
			c-1.9,0.7-3.9-0.3-4.7-2.1L184.1,11.3c-0.4-1-0.4-2.1,0-3c0.2-0.4,0.4-0.7,0.7-1H42.9C23.2,7.2,7.2,23.3,7.2,43v25.3l37.5-13
			c1.9-0.7,4,0.3,4.8,2.1l23,56.2c7.6,18.4,10.3,24,11.2,25.5c2,3.1,4.5,5.1,7.7,6.2c3.3,1.1,6.2,1.1,9.2,0.1
			c6.9-2.4,10.2-8.9,10.1-19.8c0,0,0-0.1,0-0.1c0-2.7-0.3-10.3-0.9-22.8l-3.4-66c-0.1-1.7,0.9-3.2,2.5-3.8L166,13.3
			c1.2-0.4,2.5-0.2,3.5,0.5c1,0.7,1.6,1.9,1.5,3.2l-3.7,127.7l90.4,93.9c0.9,0.9,1.3,2.3,1,3.5c-0.3,1.3-1.2,2.3-2.4,2.7l-79,27.3
			c-1.6,0.6-3.4,0-4.4-1.5l-33-49.3c-10.7-15.9-13.5-18.5-14-18.9c-2.9-2-5.6-2.3-8.8-1.2c-3,1-10.1,3.5-4.6,19.4
			c1.1,3.1,2.6,7.3,4.7,12.4l18.8,49.3c0.4,1,0.3,2-0.1,3c-0.4,0.9-1.2,1.6-2.2,2L116.5,293.2z"/>
	</g>
	<g>
		<path d="M296.9,112.7c-1.7,0-3.2-1.1-3.6-2.8L263.5,5.7c-0.4-1.3,0-2.7,0.9-3.7c0.9-1,2.3-1.4,3.7-1c19.2,4.9,32.6,22.2,32.6,42
			v65.9c0,1.9-1.4,3.5-3.3,3.8C297.3,112.7,297.1,112.7,296.9,112.7z M272.9,10.8l20.3,71.1V43C293.1,29,285.1,16.6,272.9,10.8z"/>
	</g>
	<g>
		<path d="M43.9,300.8h-1c-23.9,0-43.4-19.5-43.4-43.4V157c0-1.9,1.4-3.5,3.3-3.8c1.9-0.3,3.6,0.9,4.2,2.7l40.6,140
			c0.3,1.1,0.1,2.4-0.6,3.3S45.1,300.8,43.9,300.8z M7.2,183.7v73.7c0,18.3,13.9,33.5,31.7,35.5L7.2,183.7z"/>
	</g>
</g>
</svg>
